{"title":"Birthmarked 2018 Movies HDRip x264 5.1 with Sample ☻rDX☻","magnet":"magnet:?xt=urn:btih:0f974689cfb09ea9eee5daee6f37d0b760dea4a5&dn=Birthmarked+2018+Movies+HDRip+x264+5.1+with+Sample+%E2%98%BBrDX%E2%98%BB&tr=udp%3A%2F%2Ftracker.leechers-paradise.org%3A6969&tr=udp%3A%2F%2Fzer0day.ch%3A1337&tr=udp%3A%2F%2Fopen.demonii.com%3A1337&tr=udp%3A%2F%2Ftracker.coppersurfer.tk%3A6969&tr=udp%3A%2F%2Fexodus.desync.com%3A6969","uploader":"basicssom","categoryP":"video","categoryS":"movies","size":"888662943","seeders":"0","leechers":"60","description":"----------------------------------------------------------------\r\nBirthmarked 2018 Movies HDRip x264 5.1 with Sample &#x263B;rDX&#x263B;\r\n\r\nSCREEN SHOTS &amp; POSTER:\r\n   <a href=\"\nhttp://iphonehosting.eu/2018/3/buy/index.html\" rel=\"nofollow\" target=\"_NEW\">\nhttp://iphonehosting.eu/2018/3/buy/index.html</a> <a href=\"\nhttp://iphonehosting.eu/2018/3/buy/1.html\" rel=\"nofollow\" target=\"_NEW\">\nhttp://iphonehosting.eu/2018/3/buy/1.html</a> <a href=\"\nhttp://iphonehosting.eu/2018/3/buy/2.html\" rel=\"nofollow\" target=\"_NEW\">\nhttp://iphonehosting.eu/2018/3/buy/2.html</a>   <a href=\"\nhttp://iphonehosting.eu/2018/3/buy/3.html\" rel=\"nofollow\" target=\"_NEW\">\nhttp://iphonehosting.eu/2018/3/buy/3.html</a>   <a href=\"\nhttp://iphonehosting.eu/2018/3/buy/4.html\" rel=\"nofollow\" target=\"_NEW\">\nhttp://iphonehosting.eu/2018/3/buy/4.html</a>   <a href=\"\nhttp://iphonehosting.eu/2018/3/buy/5.html\" rel=\"nofollow\" target=\"_NEW\">\nhttp://iphonehosting.eu/2018/3/buy/5.html</a>   <a href=\"\nhttp://iphonehosting.eu/2018/3/buy/6.html\" rel=\"nofollow\" target=\"_NEW\">\nhttp://iphonehosting.eu/2018/3/buy/6.html</a>   <a href=\"\nhttp://iphonehosting.eu/2018/3/buy/7.html\" rel=\"nofollow\" target=\"_NEW\">\nhttp://iphonehosting.eu/2018/3/buy/7.html</a>   <a href=\"\nhttp://iphonehosting.eu/2018/3/buy/8.html\" rel=\"nofollow\" target=\"_NEW\">\nhttp://iphonehosting.eu/2018/3/buy/8.html</a>   <a href=\"\nhttp://iphonehosting.eu/2018/3/buy/9.html\" rel=\"nofollow\" target=\"_NEW\">\nhttp://iphonehosting.eu/2018/3/buy/9.html</a>   <a href=\"\nhttp://iphonehosting.eu/2018/3/buy/10.html\" rel=\"nofollow\" target=\"_NEW\">\nhttp://iphonehosting.eu/2018/3/buy/10.html</a>\r\n\r\nFile size                                : 839 MiB\r\nDuration                                 : 1 h 27 min\r\nOverall bit rate mode                    : Constant\r\nOverall bit rate                         : 1 334 kb/s\r\nMovie name                               : Birthmarked 2018 Movies HDRip x264 5.1 &#x263B;rDX&#x263B;\r\n\r\nVideo\r\nID                                       : 2\r\nFormat                                   : AVC\r\nFormat/Info                              : Advanced Video Codec\r\nFormat profile                           : <a href=\"/cdn-cgi/l/email-protection\" class=\"__cf_email__\" data-cfemail=\"93def2fafdd3dfa0\">[email&#xA0;protected]</a>\r\nFormat settings, CABAC                   : Yes\r\nFormat settings, ReFrames                : 2 frames\r\nFormat settings, GOP                     : M=1, N=12\r\nCodec ID                                 : V_MPEG4/ISO/AVC\r\nDuration                                 : 1 h 27 min\r\nBit rate mode                            : Constant\r\nBit rate                                 : 951 kb/s\r\nWidth                                    : 720 pixels\r\nHeight                                   : 304 pixels\r\nDisplay aspect ratio                     : 2.35:1\r\nFrame rate mode                          : Constant\r\nFrame rate                               : 23.976 FPS\r\nColor space                              : YUV\r\nChroma subsampling                       : 4:2:0\r\nBit depth                                : 8 bits\r\nScan type                                : Progressive\r\nBits/(Pixel*Frame)                       : 0.181\r\nStream size                              : 581 MiB (69%)\r\nTitle                                    : &#x263B;rDX&#x263B;\r\nDefault                                  : Yes\r\nForced                                   : No\r\n\r\nAudio\r\nID                                       : 1\r\nFormat                                   : AC-3\r\nFormat/Info                              : Audio Coding 3\r\nMode extension                           : CM (complete main)\r\nFormat settings, Endianness              : Big\r\nCodec ID                                 : A_AC3\r\nDuration                                 : 1 h 27 min\r\nBit rate mode                            : Constant\r\nBit rate                                 : 384 kb/s\r\nChannel(s)                               : 6 channels\r\nChannel positions                        : Front: L C R, Side: L R, LFE\r\nSampling rate                            : 48.0 kHz\r\nFrame rate                               : 31.250 FPS (1536 spf)\r\nBit depth                                : 16 bits\r\nCompression mode                         : Lossy\r\nStream size                              : 242 MiB (29%)\r\nTitle                                    : &#x263B;rDX&#x263B;\r\nDefault                                  : Yes\r\nForced                                   : No","last_updated":"2018-04-01T12:17:32.959Z","parsed":{"xt":"urn:btih:0f974689cfb09ea9eee5daee6f37d0b760dea4a5","dn":"Birthmarked 2018 Movies HDRip x264 5.1 with Sample ☻rDX☻","tr":["udp://exodus.desync.com:6969","udp://open.demonii.com:1337","udp://tracker.coppersurfer.tk:6969","udp://tracker.leechers-paradise.org:6969","udp://zer0day.ch:1337"],"infoHash":"0f974689cfb09ea9eee5daee6f37d0b760dea4a5","infoHashBuffer":{"type":"Buffer","data":[15,151,70,137,207,176,158,169,238,229,218,238,111,55,208,183,96,222,164,165]},"name":"Birthmarked 2018 Movies HDRip x264 5.1 with Sample ☻rDX☻","announce":["udp://exodus.desync.com:6969","udp://open.demonii.com:1337","udp://tracker.coppersurfer.tk:6969","udp://tracker.leechers-paradise.org:6969","udp://zer0day.ch:1337"],"urlList":[]}}